<svg width="971" height="365" viewBox="0 0 971 365" fill="none" xmlns="http://www.w3.org/2000/svg">
<path fill-rule="evenodd" clip-rule="evenodd" d="M474.46 17.715L415.923 150L353.246 17.715H351.417V135.077L371.924 144.897H326L346.507 135.077V9.62773L329.37 0H362.874L421.218 122.465H423.818L477.252 0H510.371L493.234 9.62773V135.27L510.371 144.897H459.248L476.674 135.27V17.715H474.46ZM587.778 144.897H519.902L537.04 134.403V10.3979L519.902 0H590.089C603.888 0 615.538 3.30552 625.037 9.91656C634.601 16.4634 639.383 24.5186 639.383 34.0822C639.383 42.2978 636.045 49.4223 629.37 55.4557C622.694 61.4249 613.869 65.3402 602.893 67.2015V69.4159C615.281 71.7266 625.262 76.1874 632.836 82.7985C640.409 89.3453 644.229 97.1117 644.293 106.098C644.357 117.587 639.03 126.926 628.311 134.114C617.656 141.303 604.145 144.897 587.778 144.897ZM553.599 3.94737V66.8164H588.741C598.625 66.8164 606.648 63.7997 612.81 57.7664C618.972 51.6688 622.053 43.7741 622.053 34.0822C622.053 25.1605 619.036 17.9076 613.003 12.3235C606.969 6.73941 598.946 3.94737 588.933 3.94737H553.599ZM553.599 70.5713V140.95H586.719C599.235 140.95 609.023 137.548 616.083 130.745C623.208 123.941 626.77 115.629 626.77 105.809C626.77 101.123 625.904 96.6945 624.171 92.5225C622.438 88.2863 619.935 84.5315 616.661 81.258C613.388 77.9846 609.184 75.3851 604.049 73.4596C598.914 71.534 593.202 70.5713 586.911 70.5713H553.599ZM794.757 176L804.369 194.592L784.903 176H794.757ZM828.932 273.427H770.68L779.32 268.136V205.612L770.68 200.369H825.388V202.165L828.252 219.932L816.311 202.359H787.67V234.155L805.777 234.058L812.427 222.311V247.893L805.777 236.049H787.67V271.437H819.806L831.942 251.243L828.932 271.631V273.427ZM119.66 273.427H96.1165L105.534 268.767L131.214 207.117L126.796 201.049L137.476 199.252L166.893 268.864L175.631 273.427H146.602L157.524 268.961L148.398 247.262H116.893L108.107 268.864L119.66 273.427ZM131.893 210.417L117.67 245.272H147.476L132.864 210.417H131.893ZM74.8544 209.301L45.3398 276L13.7379 209.301H12.8155V268.476L23.1553 273.427H0L10.3398 268.476V205.223L1.69903 200.369H18.5922L48.0097 262.117H49.3204L76.2621 200.369H92.9612L84.3204 205.223V268.573L92.9612 273.427H67.1845L75.9709 268.573V209.301H74.8544ZM187.476 268.573L178.835 273.427H204.612L195.825 268.573V237.262H204.515L236.796 273.427H248.058L215.243 238.233V236.631C221.295 235.595 226.165 233.379 229.854 229.981C233.544 226.583 235.388 222.667 235.388 218.233C235.388 213.152 232.913 208.913 227.961 205.515C223.01 202.084 216.748 200.369 209.175 200.369H178.835L187.476 205.612V268.573ZM195.825 235.466V202.359H207.67C213.625 202.359 218.269 203.816 221.602 206.728C224.968 209.641 226.65 213.54 226.65 218.427C226.65 223.476 224.968 227.586 221.602 230.757C218.236 233.896 213.592 235.466 207.67 235.466H195.825ZM250.194 273.427L258.835 268.573V205.223L250.194 200.369H275.971L267.184 205.223V268.573L275.971 273.427H250.194ZM347.913 276V205.612L358.252 200.369H335.097L345.388 205.612V258.33H344.223L294.709 199.252L283.155 200.466L290.534 207.505V268.136L280.194 273.427H303.35L293.01 268.136V211.68H294.126L347.913 276ZM420.583 273.427H362.33L370.971 268.136V205.612L362.33 200.369H417.039V202.165L419.903 219.932L407.961 202.359H379.32V234.155L397.427 234.058L404.078 222.311V247.893L397.427 236.049H379.32V271.437H411.456L423.592 251.243L420.583 271.631V273.427ZM450.777 273.427H485C493.252 273.427 500.065 271.615 505.437 267.99C510.841 264.366 513.528 259.657 513.495 253.864C513.463 249.333 511.537 245.417 507.718 242.117C503.9 238.783 498.867 236.534 492.621 235.369V234.252C498.155 233.314 502.605 231.34 505.971 228.33C509.337 225.288 511.019 221.696 511.019 217.553C511.019 212.731 508.608 208.67 503.786 205.369C498.997 202.036 493.123 200.369 486.165 200.369H450.777L459.417 205.612V268.136L450.777 273.427ZM467.767 234.058V202.359H485.583C490.631 202.359 494.676 203.767 497.718 206.583C500.761 209.398 502.282 213.055 502.282 217.553C502.282 222.44 500.728 226.421 497.621 229.495C494.515 232.537 490.469 234.058 485.485 234.058H467.767ZM467.767 271.437V235.951H484.563C487.735 235.951 490.615 236.437 493.204 237.408C495.793 238.379 497.913 239.689 499.563 241.34C501.214 242.99 502.476 244.883 503.35 247.019C504.223 249.123 504.66 251.356 504.66 253.718C504.66 258.67 502.864 262.861 499.272 266.291C495.712 269.722 490.777 271.437 484.466 271.437H467.767ZM519.417 273.427L528.058 268.573V205.612L519.417 200.369H549.757C557.33 200.369 563.592 202.084 568.544 205.515C573.495 208.913 575.971 213.152 575.971 218.233C575.971 222.667 574.126 226.583 570.437 229.981C566.748 233.379 561.877 235.595 555.825 236.631V238.233L588.641 273.427H577.379L545.097 237.262H536.408V268.573L545.194 273.427H519.417ZM536.408 202.359V235.466H548.252C554.175 235.466 558.819 233.896 562.184 230.757C565.55 227.586 567.233 223.476 567.233 218.427C567.233 213.54 565.55 209.641 562.184 206.728C558.851 203.816 554.207 202.359 548.252 202.359H536.408ZM601.262 268.087C606.537 272.456 613.155 274.641 621.117 274.641C628.528 274.641 634.676 272.359 639.563 267.796C644.45 263.233 646.893 257.489 646.893 250.563V205.612L657.233 200.369H633.932L644.272 205.612V249.981C644.272 255.515 642.314 260.11 638.398 263.767C634.515 267.424 629.612 269.252 623.689 269.252C617.443 269.252 612.233 267.375 608.058 263.621C603.916 259.867 601.845 255.175 601.845 249.544L601.651 205.612L610.388 200.369H584.757L593.398 205.612V251.631C593.398 258.233 596.019 263.718 601.262 268.087ZM725.777 205.612V276L671.99 211.68H670.874V268.136L681.214 273.427H658.058L668.398 268.136V207.505L661.019 200.466L672.573 199.252L722.087 258.33H723.252V205.612L712.961 200.369H736.117L725.777 205.612ZM748.835 268.573L740.194 273.427H765.971L757.185 268.573V205.223L765.971 200.369H740.194L748.835 205.223V268.573ZM846.117 268.573L837.476 273.427H863.252L854.466 268.573V237.262H863.155L895.437 273.427H906.699L873.883 238.233V236.631C879.935 235.595 884.806 233.379 888.495 229.981C892.185 226.583 894.029 222.667 894.029 218.233C894.029 213.152 891.553 208.913 886.602 205.515C881.651 202.084 875.388 200.369 867.816 200.369H837.476L846.117 205.612V268.573ZM854.466 235.466V202.359H866.311C872.265 202.359 876.909 203.816 880.243 206.728C883.608 209.641 885.291 213.54 885.291 218.427C885.291 223.476 883.608 227.586 880.243 230.757C876.877 233.896 872.233 235.466 866.311 235.466H854.466ZM967.087 273.427H908.835L917.476 268.136V205.612L908.835 200.369H963.544V202.165L966.408 219.932L954.466 202.359H925.825V234.155L943.932 234.058L950.583 222.311V247.893L943.932 236.049H925.825V271.437H957.961L970.097 251.243L967.087 271.631V273.427ZM512.524 361.572C515.532 363.353 518.791 364.244 522.303 364.244C524.504 364.261 526.689 364.051 528.856 363.614C531.024 363.16 532.897 362.538 534.477 361.749V360.942L536.191 351.213C534.494 355.33 532.511 358.354 530.242 360.287C527.991 362.219 525.344 363.177 522.303 363.16C519.363 363.16 516.758 362.37 514.49 360.791C512.238 359.195 510.508 356.977 509.298 354.137C508.088 351.297 507.483 348.038 507.483 344.358C507.483 340.829 508.08 337.679 509.273 334.906C510.482 332.117 512.196 329.941 514.414 328.378C516.632 326.816 519.161 326.034 522.001 326.034C525.025 326.018 527.646 326.908 529.864 328.706C532.082 330.504 533.981 333.209 535.561 336.822L534.174 328.252V327.421C532.612 326.648 530.755 326.051 528.604 325.631C526.453 325.194 524.252 324.984 522.001 325.001C519.413 325.001 516.926 325.513 514.54 326.538C512.171 327.563 510.121 328.941 508.39 330.672C506.66 332.386 505.273 334.444 504.232 336.847C503.207 339.233 502.694 341.737 502.694 344.358C502.694 347.937 503.576 351.255 505.341 354.313C507.122 357.372 509.516 359.791 512.524 361.572ZM452.336 364.244C448.774 364.244 445.481 363.37 442.456 361.623C439.449 359.858 437.071 357.481 435.323 354.49C433.593 351.482 432.727 348.206 432.727 344.66C432.727 341.972 433.24 339.418 434.265 336.998C435.307 334.562 436.701 332.47 438.449 330.722C440.196 328.975 442.28 327.589 444.699 326.564C447.119 325.522 449.665 325.001 452.336 325.001C455.008 325.001 457.545 325.522 459.948 326.564C462.368 327.589 464.451 328.975 466.199 330.722C467.946 332.47 469.332 334.562 470.357 336.998C471.382 339.418 471.895 341.972 471.895 344.66C471.895 348.206 471.021 351.482 469.273 354.49C467.543 357.481 465.174 359.858 462.166 361.623C459.158 363.37 455.882 364.244 452.336 364.244ZM452.336 361.95C454.655 361.95 456.865 361.497 458.965 360.589C461.082 359.682 462.905 358.464 464.434 356.935C465.963 355.389 467.173 353.549 468.064 351.415C468.971 349.264 469.425 347.013 469.425 344.66C469.425 342.291 468.971 340.031 468.064 337.88C467.173 335.73 465.963 333.881 464.434 332.335C462.905 330.789 461.082 329.563 458.965 328.656C456.865 327.731 454.655 327.269 452.336 327.269C450.001 327.269 447.774 327.731 445.657 328.656C443.54 329.563 441.717 330.789 440.188 332.335C438.659 333.881 437.441 335.73 436.533 337.88C435.643 340.031 435.197 342.291 435.197 344.66C435.197 347.013 435.643 349.264 436.533 351.415C437.441 353.549 438.659 355.389 440.188 356.935C441.717 358.464 443.54 359.682 445.657 360.589C447.774 361.497 450.001 361.95 452.336 361.95ZM309 363.614H321.224L315.225 361.245L319.787 350.029H336.145L340.883 361.295L335.212 363.614H350.284L345.748 361.245L330.474 325.102L324.929 326.034L327.223 329.185L313.89 361.194L309 363.614ZM320.191 348.995L327.576 330.899H328.08L335.666 348.995H320.191ZM389.25 365L403.037 328.454L408.052 325.681H395.854L401.701 328.404L391.216 356.859H390.561L378.74 328.404L384.411 325.681H369.137L373.876 328.504L389.25 365ZM575.383 363.614H563.159L568.049 361.194L581.382 329.185L579.088 326.034L584.633 325.102L599.907 361.245L604.444 363.614H589.372L595.042 361.295L590.304 350.029H573.947L569.385 361.245L575.383 363.614ZM581.735 330.899L574.35 348.995H589.825L582.239 330.899H581.735ZM641.267 361.093L635.898 363.614H650.971L645.602 361.093V326.715H654.02L660.977 336.62L659.263 326.614V325.681H627.581V326.614L625.867 336.62L632.849 326.715H641.267V361.093ZM0 148H260V149H0V148ZM260 325H0V326H260V325ZM710 148H970V149H710V148ZM970 325H710V326H970V325Z" fill="black"/>
</svg>
